<svg width="187" height="236" viewBox="0 0 187 236" fill="none" xmlns="http://www.w3.org/2000/svg">
<g clip-path="url(#clip0_21_892)">
<path d="M151.511 140.744L113.391 144.45C111.985 144.587 110.966 145.842 111.101 147.239L111.721 153.608C112.88 165.54 123.509 174.315 135.416 173.158C147.323 172 156.074 161.341 154.914 149.409L154.295 143.04C154.16 141.643 152.918 140.608 151.511 140.744V140.744ZM149.84 149.902C150.727 159.027 144.039 167.174 134.92 168.06C125.802 168.947 117.682 162.24 116.795 153.115L116.424 149.301L149.469 146.089L149.84 149.902Z" fill="#01182E"/>
<path d="M113.819 4.99274L77.5832 8.51534C34.741 12.6802 3.3844 50.8715 7.55922 93.8163L14.2203 162.337C15.937 179.995 31.6227 192.929 49.2444 191.216C53.4144 190.811 57.1532 189.101 60.0867 186.541C72.0004 204.365 93.0544 215.265 115.813 213.052C148.746 209.851 172.926 180.4 169.718 147.398L161.614 64.0383C167.031 62.508 170.745 57.2808 170.18 51.4658C167.417 23.0457 142.179 2.23571 113.819 4.99274ZM164.631 147.893C167.566 178.087 145.449 205.026 115.318 207.955C94.0158 210.026 74.3458 199.537 63.6028 182.54C65.9664 178.943 67.1743 174.544 66.724 169.913L59.2884 93.425C58.2655 82.9027 65.9516 73.5413 76.4643 72.5193L156.547 64.7342L164.631 147.893Z" fill="#01182E"/>
<path d="M76.4644 72.5193C65.9517 73.5413 58.2656 82.9027 59.2885 93.425L66.7241 169.913C67.1744 174.544 65.9665 178.943 63.6029 182.54C74.3459 199.537 94.0159 210.026 115.318 207.955C145.449 205.026 167.567 178.087 164.631 147.893L156.547 64.7342L76.4644 72.5193ZM154.915 149.409C156.075 161.341 147.335 171.999 135.416 173.158C123.496 174.316 112.881 165.54 111.721 153.608L111.102 147.239C110.966 145.842 111.985 144.587 113.392 144.45L151.511 140.744C152.918 140.608 154.16 141.643 154.295 143.04L154.915 149.409V149.409Z" fill="white"/>
<path d="M149.469 146.088L149.84 149.902C150.727 159.027 144.039 167.174 134.92 168.06C125.802 168.947 117.682 162.24 116.795 153.115L116.424 149.301L149.469 146.088Z" fill="white"/>
<path d="M107.534 163.62C105.855 161.09 103.33 159.379 100.367 158.765C98.142 158.308 95.9339 158.548 93.9567 159.337L93.9999 159.13C94.6115 156.161 94.0253 153.13 92.3616 150.624C90.6829 148.093 88.1583 146.382 85.1952 145.768C82.9437 145.301 80.6991 145.557 78.7118 146.373C78.9355 143.848 78.2977 141.331 76.8843 139.182C75.2194 136.663 72.681 134.94 69.7179 134.326C67.066 133.783 64.4216 134.231 62.1784 135.415C61.9967 133.806 61.565 132.234 60.7295 130.944C59.0508 128.413 56.5262 126.702 53.5631 126.088C47.4699 124.838 41.5016 128.785 40.2567 134.89L36.6694 152.506C32.6169 152.163 26.4811 153.344 24.0575 165.192L21.0362 180.021C16.639 201.564 33.5705 226.269 55.8599 230.836C77.3737 235.25 99.4644 219.775 104.103 197.064L109.196 172.111C109.807 169.142 109.209 166.113 107.557 163.605L107.534 163.62ZM99.0728 196.054C95.0635 215.717 75.3312 229.629 56.8709 225.846C37.1556 221.804 22.1705 200.036 26.0324 181.072L29.0538 166.244C30.5289 158.985 33.0941 157.592 35.618 157.601L33.1257 169.786C32.8422 171.173 33.7352 172.535 35.1058 172.808C36.4763 173.082 37.8485 172.199 38.132 170.812L45.2403 135.943C45.9169 132.6 49.1809 130.44 52.5193 131.132C54.137 131.47 55.5335 132.402 56.4404 133.775C57.5261 135.422 57.236 139.351 56.6236 142.18C56.5274 142.495 56.4575 142.819 56.3888 143.156L56.3367 143.403C56.062 144.751 56.9137 146.078 58.2515 146.405C59.5855 146.695 60.9436 145.928 61.2961 144.598C61.3442 144.44 61.4481 144.075 61.56 143.53C62.5018 140.567 65.5566 138.733 68.6615 139.371C70.2792 139.709 71.6757 140.641 72.5826 142.014C73.5032 143.398 73.8155 145.045 73.4911 146.665L71.8673 154.611C71.5826 155.985 72.4882 157.346 73.8587 157.619C75.2292 157.892 76.6014 157.009 76.8737 155.636C77.5502 152.292 80.813 150.12 84.1502 150.799C85.7679 151.138 87.1644 152.069 88.0737 153.467C88.9806 154.84 89.294 156.5 88.9697 158.119L87.0393 167.607C86.7558 168.994 87.6602 170.342 89.0319 170.628C90.4037 170.914 91.7633 170.032 92.0469 168.645C92.7234 165.301 95.9988 163.128 99.3372 163.82C100.955 164.158 102.351 165.09 103.261 166.488C104.168 167.861 104.481 169.52 104.157 171.14L99.064 196.093L99.0728 196.054Z" fill="#01182E"/>
<path d="M104.166 171.101L99.0728 196.054C95.0634 215.717 75.3312 229.629 56.8709 225.846C37.1555 221.804 22.1704 200.036 26.0324 181.072L29.0537 166.244C30.5288 158.985 33.094 157.592 35.6179 157.601L33.1257 169.786C32.8421 171.173 33.7352 172.535 35.1057 172.808C36.4762 173.082 37.8484 172.199 38.132 170.812L45.2403 135.943C45.9169 132.599 49.1809 130.44 52.5192 131.132C54.137 131.47 55.5334 132.402 56.4403 133.774C57.526 135.422 57.236 139.351 56.6235 142.18C56.5273 142.495 56.4574 142.819 56.3887 143.156L56.3366 143.403C56.062 144.751 56.9137 146.078 58.2514 146.405C59.5855 146.695 60.9436 145.928 61.2961 144.597C61.3442 144.44 61.4481 144.075 61.56 143.53C62.5018 140.567 65.5565 138.733 68.6615 139.371C70.2792 139.709 71.6757 140.641 72.5825 142.014C73.5032 143.398 73.8154 145.045 73.4911 146.665L71.8673 154.611C71.5825 155.985 72.4882 157.346 73.8587 157.619C75.2292 157.892 76.6014 157.009 76.8736 155.636C77.5502 152.292 80.813 150.12 84.1501 150.799C85.7679 151.138 87.1643 152.069 88.0736 153.467C88.9805 154.84 89.294 156.5 88.9696 158.119L87.0393 167.607C86.7557 168.994 87.6601 170.342 89.0319 170.628C90.4036 170.914 91.7633 170.032 92.0468 168.645C92.7234 165.301 95.9987 163.128 99.3371 163.82C100.955 164.158 102.351 165.09 103.261 166.488C104.168 167.861 104.481 169.52 104.157 171.14L104.166 171.101Z" fill="white"/>
</g>
<defs>
<clipPath id="clip0_21_892">
<rect width="165.955" height="220.845" fill="white" transform="translate(0 16.0575) rotate(-5.55249)"/>
</clipPath>
</defs>
</svg>
