<svg width="256" height="365" viewBox="0 0 256 365" fill="none" xmlns="http://www.w3.org/2000/svg">
<path d="M207.046 48.5261L97.1321 62.9394C111.096 57.9937 120.183 43.8319 118.178 28.5434C115.874 10.9689 99.7663 -1.40379 82.1918 0.900794L40.8141 6.32675C23.2396 8.63134 10.8459 24.7414 13.1505 42.3159C15.1554 57.6045 27.607 68.9419 42.3534 70.1227L38.0331 70.6892C14.3977 73.7886 -2.23609 95.4678 0.863272 119.103L9.25659 183.11C10.6371 193.638 19.4569 201.355 29.7407 201.692L39.6521 277.275C46.8601 332.243 97.4593 371.11 152.448 363.899C207.436 356.688 246.283 306.092 239.075 251.124L223.589 133.031C244.34 127.622 258.302 107.531 255.442 85.7197C252.343 62.0843 230.682 45.4268 207.046 48.5261V48.5261ZM230.581 252.238C237.176 302.529 201.628 348.832 151.337 355.426C101.046 362.021 54.7405 326.452 48.1458 276.161L38.1931 200.264C47.1867 196.781 52.9919 187.529 51.6829 177.546L51.5811 176.77C50.0988 165.466 58.0436 155.124 69.3475 153.641L215.145 134.523L230.581 252.238Z" fill="white"/>
<path d="M198.041 267.301L199.43 277.892C202.039 297.794 187.969 316.087 168.088 318.694C148.206 321.301 129.896 307.255 127.286 287.352L125.897 276.762C125.589 274.413 127.247 272.254 129.596 271.946C131.945 271.638 134.083 273.299 134.391 275.648L135.78 286.239C137.773 301.443 151.769 312.194 166.974 310.2C182.179 308.207 192.93 294.211 190.936 279.006L189.547 268.415C189.239 266.066 190.897 263.907 193.246 263.599C195.595 263.291 197.733 264.952 198.041 267.301Z" fill="white"/>
</svg>
