<svg width="165" height="238" viewBox="0 0 165 238" fill="none" xmlns="http://www.w3.org/2000/svg">
<path d="M50.0903 34.1445L34.5043 82.0602L39.9393 150.851L54.9281 186.288L79.1053 194.806L92.4125 196.524L107.036 195.464L127.423 188.457L143.289 173.2L148.42 160.819L153.245 149.498L152.465 122.225L153.245 51.0954L50.0903 34.1445Z" fill="white"/>
<path d="M128.155 153.812L104.051 159.003C98.7377 160.149 93.4855 156.749 92.34 151.436C92.0475 150.107 90.7436 149.254 89.4153 149.547C88.087 149.839 87.234 151.143 87.5265 152.471C89.2447 160.441 97.1291 165.535 105.099 163.817L129.203 158.625C130.531 158.333 131.384 157.029 131.092 155.701C130.799 154.372 129.495 153.519 128.167 153.812H128.155Z" fill="#01182E"/>
<path d="M164.774 49.8289C164.774 22.3127 142.473 0 114.957 0H79.8005C38.2216 0 4.5271 33.7067 4.5271 75.2734V141.614C4.5271 158.711 18.3949 172.579 35.4919 172.579C39.5377 172.579 43.2788 171.287 46.3497 169.106C56.1229 187.312 75.3526 199.73 97.4338 199.73C129.386 199.73 155.366 173.737 155.366 141.785V61.0888C160.716 60.1261 164.774 55.4588 164.774 49.8289ZM97.4216 194.807C76.754 194.807 58.8161 182.913 50.0787 165.609C52.6987 162.379 54.2707 158.273 54.2707 153.788V79.7335C54.2707 69.5459 62.5328 61.2838 72.7204 61.2838H150.419V141.797C150.419 171.032 126.644 194.807 97.4094 194.807H97.4216Z" fill="#01182E"/>
<path d="M77.2301 178.575L80.0329 187.946C85.8334 207.334 74.8172 227.758 55.4414 233.546C36.0533 239.347 15.6295 228.331 9.82889 208.943L4.30859 190.493C5.63688 194.953 10.3407 197.488 14.8008 196.16C19.2609 194.831 21.7591 190.201 20.4917 185.765C21.8565 190.164 26.5238 192.65 30.9474 191.322C35.3709 189.993 37.9422 185.29 36.6139 180.829C37.3938 183.425 39.307 185.363 41.6467 186.264H41.6589C43.6209 187.471 46.0825 187.873 48.4587 187.154L77.2179 178.551L77.2301 178.575Z" fill="white"/>
<path d="M74.0966 168.12L77.2285 178.576L48.4693 187.179C46.093 187.886 43.6315 187.496 41.6695 186.29C41.6695 186.29 41.6695 186.29 41.6573 186.29C39.9513 185.254 38.5986 183.597 37.9771 181.525C36.6488 177.065 39.1835 172.361 43.6436 171.033L50.6628 168.937L66.6997 164.136C66.6997 164.136 66.785 164.111 66.8216 164.111C66.8703 164.087 66.919 164.062 66.9678 164.062C67.0775 164.026 67.1871 164.014 67.2846 163.989C67.6746 163.904 68.0767 163.867 68.4545 163.88C68.6129 163.88 68.7713 163.88 68.9297 163.904C69.0638 163.904 69.21 163.941 69.3441 163.965C69.3806 163.965 69.4172 163.977 69.4537 163.989C69.5512 164.014 69.6365 164.026 69.7462 164.05C69.7706 164.05 69.795 164.05 69.8315 164.075C70.0021 164.099 70.1727 164.148 70.3311 164.221C70.4896 164.27 70.6236 164.318 70.782 164.391C70.8186 164.404 70.8673 164.416 70.9039 164.44C70.9892 164.477 71.0867 164.525 71.172 164.574C71.3182 164.647 71.4644 164.733 71.5985 164.818C71.7569 164.915 71.9031 165.025 72.0494 165.135C72.1225 165.196 72.1956 165.257 72.2687 165.305C72.4271 165.439 72.5856 165.586 72.7196 165.732C72.8658 165.878 72.9999 166.024 73.1217 166.195C73.1583 166.232 73.1827 166.28 73.2314 166.329C73.3655 166.512 73.4751 166.682 73.5848 166.89C73.7189 167.145 73.8407 167.389 73.9382 167.657C73.9991 167.816 74.0601 167.962 74.1088 168.133L74.0966 168.12Z" fill="white"/>
<path d="M56.8299 130.709L66.8225 164.099C66.8225 164.099 66.7372 164.111 66.7007 164.123L50.6638 168.925L46.3499 154.521L40.6712 135.547C40.001 133.317 40.3056 131.026 41.3293 129.125C42.3529 127.224 44.0955 125.713 46.3256 125.043C50.7857 123.714 55.4895 126.249 56.8178 130.709H56.8299Z" fill="white"/>
<path d="M46.3496 154.521L50.6635 168.924L43.6443 171.02C39.1842 172.349 36.6495 177.053 37.9778 181.513C38.5993 183.584 39.9397 185.242 41.658 186.277C39.3182 185.376 37.3928 183.426 36.6251 180.842L32.4331 166.828L31.9457 165.22L30.1909 159.346C29.5206 157.116 29.8253 154.825 30.8489 152.924C31.8725 151.023 33.6273 149.524 35.8574 148.854C40.3175 147.526 45.0213 150.048 46.3496 154.508V154.521Z" fill="white"/>
<path d="M32.4207 166.841L36.6127 180.855C37.9409 185.316 35.4062 190.019 30.9461 191.348C26.486 192.676 21.8553 190.19 20.4905 185.791L18.9307 180.575L16.2741 171.679C16.1157 171.131 16.006 170.57 15.9573 170.022C15.7988 168.34 16.1522 166.695 16.9322 165.269C17.9558 163.368 19.6984 161.857 21.9284 161.187C25.8402 160.017 29.9103 161.821 31.7626 165.294C32.0185 165.781 32.2379 166.305 32.4085 166.854L32.4207 166.841Z" fill="white"/>
<path d="M20.4541 185.681C20.4541 185.681 20.4785 185.754 20.5028 185.779C21.7702 190.215 19.2355 194.845 14.8119 196.174C10.3884 197.502 5.648 194.967 4.31972 190.507L2.78428 185.389C2.13841 183.183 2.43088 180.904 3.45451 179.016C4.47814 177.115 6.22075 175.603 8.4508 174.933C12.8378 173.617 17.4563 176.054 18.8699 180.393L18.9186 180.551L20.4541 185.669V185.681Z" fill="white"/>
<path d="M76.2298 166.742C76.0836 166.364 75.9252 166.035 75.7424 165.694C75.6327 165.475 75.5109 165.292 75.3646 165.085C75.2793 164.951 75.1818 164.817 75.0843 164.695C73.8779 163.111 72.1475 162.002 70.2099 161.612C70.149 161.6 70.0881 161.575 70.0271 161.575C70.0149 161.575 69.9906 161.575 69.9784 161.575C69.9296 161.575 69.8931 161.551 69.8443 161.551C69.8443 161.551 69.7347 161.527 69.6859 161.514C69.5275 161.49 69.3691 161.478 69.2228 161.466C69.2228 161.466 69.1741 161.466 69.1619 161.466H69.1132C68.9669 161.453 68.8085 161.441 68.6013 161.441L59.2059 130.038C57.4877 124.274 51.3946 120.996 45.6428 122.714C42.8522 123.543 40.5612 125.419 39.172 127.978C37.7828 130.55 37.4781 133.486 38.319 136.277L41.3898 146.526C39.4279 145.941 37.271 145.892 35.1628 146.526C32.3722 147.366 30.069 149.231 28.692 151.778C27.5099 153.971 27.12 156.445 27.5587 158.858C25.5601 158.236 23.3666 158.188 21.2584 158.821C18.48 159.65 16.1769 161.527 14.7998 164.086C13.9346 165.67 13.5081 167.425 13.5081 169.216C13.3253 169.703 13.2888 170.252 13.4472 170.788L13.9834 172.567C12.0336 171.994 9.88884 171.97 7.78065 172.604C5.00223 173.432 2.69906 175.309 1.32203 177.868C-0.054995 180.403 -0.371833 183.34 0.444634 186.13L1.98008 191.248L7.50037 209.698C13.6787 230.354 35.5162 242.137 56.1837 235.959C76.8391 229.781 88.6109 207.943 82.4325 187.288L79.6298 177.917L76.4979 167.461C76.437 167.254 76.3639 167.059 76.2664 166.791L76.2298 166.742ZM40.3418 180.817C39.4035 177.661 41.1949 174.334 44.3511 173.396L67.2974 166.535C67.3706 166.523 67.4559 166.499 67.529 166.474C67.5655 166.474 67.6021 166.45 67.6386 166.438L67.7849 166.413C68.0164 166.364 68.2236 166.34 68.4917 166.352C68.5526 166.352 68.6257 166.352 68.6867 166.352C68.6867 166.352 68.711 166.352 68.7232 166.352C68.7841 166.352 68.8694 166.364 68.9304 166.377C68.9304 166.377 68.9304 166.377 68.9426 166.377C68.9669 166.377 68.9913 166.377 69.0157 166.389C69.0157 166.389 69.1254 166.413 69.1741 166.425C69.2716 166.438 69.3569 166.474 69.4422 166.499C69.5275 166.535 69.6372 166.572 69.7103 166.596L69.7712 166.62C69.8443 166.657 69.9053 166.693 69.9784 166.718C70.0149 166.742 70.0637 166.767 70.1002 166.779C70.1734 166.815 70.2343 166.852 70.3074 166.901C70.3927 166.949 70.4658 167.01 70.5389 167.059L70.6486 167.144C70.7217 167.205 70.7948 167.278 70.868 167.339C70.8923 167.376 70.9289 167.4 70.9533 167.437C71.002 167.486 71.0508 167.546 71.0995 167.607C71.2092 167.741 71.3067 167.876 71.392 168.022C71.392 168.022 71.4042 168.046 71.4163 168.058C71.5016 168.217 71.5748 168.363 71.6357 168.534C71.6722 168.631 71.7088 168.716 71.7332 168.814L74.1582 176.905L47.7632 184.802C46.1424 185.289 44.3998 185.058 42.9618 184.168C42.9497 184.168 42.9253 184.144 42.9131 184.144C41.6701 183.388 40.7562 182.194 40.3418 180.793V180.817ZM43.035 134.839C42.5841 133.316 42.7425 131.707 43.5102 130.306C44.2658 128.904 45.5209 127.881 47.0442 127.418C50.2004 126.479 53.5272 128.271 54.4655 131.427L63.7391 162.441L52.3086 165.865L43.035 134.851V134.839ZM32.5549 158.638C32.1041 157.115 32.2625 155.507 33.0302 154.105C33.7857 152.704 35.0409 151.692 36.5642 151.229C39.7204 150.291 43.0471 152.082 43.9855 155.226L47.5926 167.266L42.9375 168.655C40.354 169.423 38.2702 171.093 36.9176 173.201L34.7972 166.133L34.3097 164.524L32.5549 158.651V158.638ZM22.6477 163.525C25.353 162.721 28.2776 163.939 29.6059 166.425C29.7887 166.779 29.9471 167.157 30.0568 167.534L34.2488 181.548C35.1871 184.704 33.3958 188.031 30.2396 188.97C27.0834 189.908 23.8175 188.141 22.8548 185.046L21.295 179.842L18.6384 170.946C18.5288 170.569 18.4435 170.167 18.4191 169.777C18.3094 168.607 18.5531 167.449 19.1137 166.413C19.8692 165.012 21.1244 163.988 22.6477 163.525ZM5.14846 184.692C4.69757 183.169 4.86818 181.573 5.62372 180.183C6.37925 178.782 7.63442 177.758 9.15768 177.295C12.2286 176.381 15.531 178.1 16.5181 181.146L16.5546 181.256L18.0901 186.374C18.0901 186.374 18.1144 186.447 18.1266 186.484C18.9918 189.591 17.1883 192.869 14.093 193.795C10.9978 194.721 7.61005 192.942 6.67172 189.786L5.14846 184.68V184.692ZM54.7336 231.182C36.6738 236.581 17.6026 226.283 12.192 208.236L9.29173 198.524C11.2537 199.108 13.4106 199.145 15.5188 198.524C18.7603 197.561 21.2219 195.185 22.4405 192.272C25.0605 194.039 28.4239 194.673 31.6654 193.698C34.9069 192.723 37.3806 190.359 38.5992 187.459C39.1964 187.861 39.8544 188.202 40.549 188.482C43.1568 190.018 46.2886 190.408 49.1889 189.542L75.584 181.646L77.68 188.653C83.0784 206.713 72.7934 225.784 54.7458 231.182H54.7336Z" fill="#01182E"/>
</svg>
