<?xml version="1.0" encoding="utf-8"?>
<!-- Generator: Adobe Illustrator 24.0.1, SVG Export Plug-In . SVG Version: 6.00 Build 0)  -->
<svg version="1.1" id="Layer_1" xmlns="http://www.w3.org/2000/svg" xmlns:xlink="http://www.w3.org/1999/xlink" x="0px" y="0px"
	 viewBox="0 0 1417.92 1417.44" style="enable-background:new 0 0 1417.92 1417.44;" xml:space="preserve">
<style type="text/css">
	.st0{fill:#FFFFFF;}
	.st1{fill:#E01E68;}
</style>
<g>
	<g>
		<path class="st0" d="M1165.34,177.4H813.98h-1.54c-48.65,0-88.81,30.54-104.25,73.28c-4.63,12.21-6.95,25.19-6.95,38.93
			c0,61.83,50.19,111.45,112.75,111.45h350.59c62.55,0,112.75-49.62,112.75-111.45C1278.09,227.79,1227.89,177.4,1165.34,177.4z"/>
		<path class="st0" d="M1278.09,552.23c0-13.74-2.32-25.96-6.95-38.17c0-0.76-0.77-1.53-0.77-3.05c0-0.76-0.78-1.53-0.78-2.29v-0.76
			c-10.81-24.43-30.12-45.04-54.83-56.49H1214c-1.55-0.76-3.09-1.53-3.86-1.53c-13.9-5.34-28.57-9.16-44.02-9.16
			c-0.77,0-2.32,0-3.09,0h-347.5c-62.55,0-112.74,50.38-112.74,111.45c0,61.83,50.19,111.45,112.74,111.45h351.36
			C1227.9,664.45,1278.09,614.06,1278.09,552.23z"/>
		<path class="st0" d="M1278.09,815.59c0-61.83-50.97-111.45-112.75-111.45c-2.31,0-3.86,0-6.18,0h-342.1c-0.77,0-0.77,0-1.54,0
			c-0.77,0-0.77,0-1.54,0c-62.55,0-112.75,49.62-112.75,111.45s50.19,111.45,112.75,111.45c0.77,0,0.77,0,1.54,0
			c0.77,0,0.77,0,1.54,0h348.27C1227.89,927.05,1278.09,877.43,1278.09,815.59z"/>
		<path class="st0" d="M813.98,177.4h-0.77c-37.84,0-73.36,18.32-94.21,51.91c-2.32,3.82-4.63,8.4-6.95,12.21L533.66,576.65
			c0,0-180.7-341.23-184.56-348.1c-10.04-15.27-23.94-28.24-40.16-37.4c-16.22-9.16-35.52-13.74-54.83-13.74h-0.77
			c-63.32,0-113.52,50.38-113.52,111.46V815.6c0,61.83,50.19,111.45,112.74,111.45s112.75-49.62,112.75-111.45v-74.05l60.23,112.22
			c2.32,4.58,4.63,8.4,7.72,12.21c16.99,34.35,51.74,58.02,91.89,61.07h0.78c1.54,0,2.31,0,3.86,0c0.77,0,1.54,0,2.31,0
			s1.55,0,1.55,0h0.77c1.54,0,2.31,0,3.86,0c0.77,0,1.54,0,1.54,0c1.55,0,3.09,0,4.63,0h0.78c1.54,0,3.09-0.76,5.4-0.76
			c0,0,0,0,0.77,0c33.98-5.34,65.64-25.95,82.63-58.78l67.18-125.19v74.05c0,48.64,50.19,111.45,112.75,111.45
			c62.55,0,112.75-49.62,112.75-111.45V287.33C926.72,225.5,876.53,177.4,813.98,177.4z"/>
		<path class="st1" d="M813.98,927.81c62.55,0,112.75-49.62,112.75-111.45s-50.19-112.22-112.75-112.22
			c-62.55,0-112.74,50.38-112.74,111.45S751.43,927.81,813.98,927.81z"/>
		<path class="st0" d="M238.67,1199.58c-5.41,3.82-12.36,6.87-21.62,6.87h-40.93v-48.09h40.93c9.27,0,16.22,2.29,21.62,6.11
			c4.63,3.05,7.72,8.4,7.72,16.79C246.39,1189.65,243.3,1195.76,238.67,1199.58z M229.4,1091.18c3.86,2.29,6.18,6.87,6.18,13.74
			s-2.32,11.45-6.18,14.5c-3.86,3.05-10.04,5.34-16.99,5.34h-36.29v-38.17h36.29C220.14,1085.83,225.54,1088.12,229.4,1091.18z
			 M271.1,1149.19c-4.63-4.58-9.27-8.4-15.44-11.45c3.09-2.29,5.41-5.34,7.72-9.16c4.63-6.87,6.95-15.27,6.95-23.67
			c0-9.92-2.32-19.08-7.72-27.48c-5.41-8.4-12.36-14.5-20.85-18.32c-8.49-4.58-18.53-6.87-30.12-6.87h-54.06
			c-4.63,0-9.27,1.53-12.36,5.34c-3.86,3.05-5.41,7.63-5.41,12.98v151.15c0,4.58,1.54,9.16,5.41,12.98
			c3.86,3.82,7.72,5.34,13.13,5.34h58.69c12.36,0,23.17-2.29,33.21-7.63s17.76-12.21,23.17-21.37s8.49-19.08,8.49-30.54
			C281.92,1167.51,278.05,1157.59,271.1,1149.19z"/>
		<path class="st0" d="M1234.83,1141.56c3.86,3.82,6.18,7.63,7.72,12.98h-59.46c2.32-5.34,4.63-9.16,8.49-12.98
			c5.41-4.58,13.13-7.63,23.17-7.63C1224.02,1133.92,1230.2,1136.97,1234.83,1141.56z M1155.29,1135.45
			c-5.41,10.69-8.49,22.14-8.49,35.12s3.09,25.19,9.27,35.12L1155.29,1135.45z M1156.06,1206.44c6.18,9.92,14.67,18.32,25.48,24.43
			c10.81,6.11,23.17,8.4,36.29,8.4c7.72,0,15.44-1.53,23.94-3.82c8.49-3.05,15.44-6.11,20.85-10.69c3.86-3.05,6.18-6.87,6.18-12.21
			c0-4.58-3.09-8.4-6.18-11.45c-3.09-3.05-6.95-3.82-10.81-3.82c-3.86,0-7.72,1.53-10.81,3.82c-2.32,1.53-5.41,3.82-10.04,5.34
			c-3.86,1.53-8.49,2.29-12.36,2.29c-10.04,0-18.53-3.05-25.48-8.4c-4.63-3.82-7.72-8.4-10.04-14.5h77.99
			c4.63,0,8.49-1.53,11.58-4.58c3.09-3.05,4.63-6.87,4.63-11.45c0-12.98-2.32-23.67-7.72-33.59c-4.63-9.92-12.36-18.32-21.62-23.66
			c-10.04-6.11-20.85-9.16-33.98-9.16s-24.71,3.05-34.75,9.16s-18.53,13.74-23.94,24.43L1156.06,1206.44z"/>
		<path class="st0" d="M914.35,1201.86c-4.63-4.58-10.04-6.87-15.44-6.87c-6.18,0-11.58,2.29-15.44,6.87s-6.18,9.16-6.18,15.27
			s2.32,10.69,6.18,15.27c4.63,3.82,9.27,6.11,15.44,6.11c6.18,0,11.58-2.29,15.44-6.11c3.86-4.58,6.18-9.16,6.18-15.27
			C920.52,1211.79,918.21,1206.44,914.35,1201.86z"/>
		<path class="st0" d="M1094.3,1061.4l-60.23,122.14l-61.78-122.14c-3.09-6.11-9.27-9.16-16.22-9.16c-4.63,0-9.27,1.53-12.36,5.34
			c-3.86,3.05-5.41,7.63-5.41,12.98v151.15c0,4.58,1.54,9.16,5.41,12.98c3.86,3.82,7.72,5.34,13.13,5.34
			c4.63,0,9.27-0.76,13.13-4.58s5.41-8.4,5.41-13.74v-82.45l42.47,83.97c1.54,3.05,3.86,6.11,6.95,7.63
			c3.09,2.29,6.18,3.05,10.04,3.05c6.95,0,11.58-3.05,15.44-8.4L1094.3,1061.4z M1049.52,1224l43.24-87.03v83.97
			c0,4.58,1.54,9.92,5.41,13.74c3.86,3.82,7.72,4.58,13.13,4.58c4.63,0,9.27-0.76,12.36-4.58c3.86-3.05,5.41-8.4,5.41-13.74V1069.8
			c0-4.58-1.54-9.16-5.41-12.98c-3.86-3.05-7.72-5.34-12.36-5.34c-6.95,0-12.36,3.82-16.22,9.16L1049.52,1224z"/>
		<path class="st0" d="M626.33,1230.11c10.81,6.11,22.39,9.16,35.52,9.16c17.76,0,33.21-5.34,45.56-16.79
			c3.09-3.05,5.41-7.63,4.63-12.21c-0.77-4.58-3.09-8.4-6.18-11.45c-3.09-2.29-6.95-3.82-11.58-3.05c-3.86,0-7.72,2.29-10.81,4.58
			c-4.63,3.82-11.58,6.11-20.85,6.11c-6.95,0-13.13-1.53-17.76-4.58c-5.41-3.05-9.27-7.63-12.36-12.98
			c-3.09-5.34-3.86-11.45-3.86-18.32c0-11.45,3.09-19.85,9.27-25.96s13.9-9.92,23.94-9.92c9.27,0,16.99,3.05,23.17,9.92
			c3.09,3.05,6.18,4.58,10.04,5.34s8.49,0,11.58-2.29c3.86-2.29,6.18-6.11,7.72-10.69s-0.77-9.16-3.86-12.98
			c-13.13-14.5-29.34-22.14-49.42-22.14c-13.13,0-24.71,3.05-34.75,9.16s-18.53,13.74-23.94,24.43
			c-6.18,10.69-8.49,22.14-8.49,35.12s3.09,24.43,8.49,35.12C607.8,1216.37,615.52,1224,626.33,1230.11z"/>
		<path class="st0" d="M478.83,1233.92c3.09-3.82,4.63-7.63,4.63-12.21v-63.36c0-4.58,1.54-7.63,3.09-10.69
			c2.32-3.05,5.41-6.11,10.04-8.4c3.86-2.29,9.27-3.05,14.67-3.05c9.27,0,16.22,2.29,21.62,7.63c5.41,4.58,8.49,11.45,8.49,22.9
			v54.96c0,4.58,1.54,9.16,4.63,12.21c3.86,3.05,7.72,4.58,12.36,4.58c4.63,0,9.27-1.53,12.36-5.34c3.86-3.82,5.41-7.63,5.41-12.98
			v-54.96c0-12.98-2.32-24.43-7.72-34.35c-5.41-9.16-12.36-16.79-21.62-21.37c-9.27-5.34-19.31-7.63-30.89-7.63
			c-8.49,0-16.22,1.53-23.94,4.58c-3.86,1.53-6.95,3.05-10.81,5.34c-0.77-1.53-1.54-3.05-3.09-3.82c-3.86-3.82-7.72-5.34-13.13-5.34
			c-4.63,0-9.27,1.53-12.36,4.58c-3.86,3.82-5.41,7.63-5.41,12.98v100c0,4.58,1.54,9.16,4.63,12.21c3.86,3.05,7.72,4.58,12.36,4.58
			C470.33,1239.27,474.97,1237.74,478.83,1233.92z"/>
		<path class="st0" d="M390.81,1152.25c3.09,5.34,4.63,11.45,4.63,18.32s-1.54,12.98-4.63,18.32s-6.95,9.16-12.36,12.98
			c-4.63,3.05-10.81,4.58-17.76,4.58c-6.18,0-12.36-1.53-17.76-4.58c-5.41-3.05-9.27-7.63-12.36-12.98
			c-3.09-5.34-4.63-11.45-4.63-18.32s1.54-12.98,4.63-18.32s6.95-9.92,12.36-12.98c5.41-3.05,10.81-4.58,17.76-4.58
			s12.36,1.53,16.99,4.58C383.08,1142.32,387.72,1146.9,390.81,1152.25z M398.53,1233.93c3.86,3.82,8.49,5.34,13.13,5.34
			c4.63,0,9.27-1.53,12.36-5.34c3.86-3.82,5.41-7.63,5.41-12.98v-51.15c0-12.98-3.09-24.43-9.27-35.12s-13.9-18.32-24.71-24.43
			c-10.81-6.11-22.39-9.16-34.75-9.16c-13.13,0-24.71,3.05-35.52,9.16c-10.04,6.11-18.53,14.5-24.71,24.43
			c-6.18,10.69-9.27,22.14-9.27,35.12s2.32,24.43,8.49,35.12c5.41,9.92,13.13,18.32,23.17,24.43c10.04,6.11,20.85,9.16,33.21,9.16
			c10.04,0,19.31-2.29,27.03-6.11c3.86-2.29,7.72-4.58,10.81-6.87C395.44,1228.58,396.98,1232.4,398.53,1233.93z"/>
		<path class="st0" d="M808.56,1139.27c5.41,3.05,9.27,6.87,12.36,12.98L808.56,1139.27z M820.15,1152.25
			c3.09,5.34,4.63,11.45,4.63,18.32s-1.54,12.98-4.63,18.32s-6.95,9.16-12.36,12.98c-4.63,3.05-10.81,4.58-17.76,4.58
			c-6.18,0-12.36-1.53-17.76-4.58c-5.41-3.05-9.27-7.63-12.36-12.98c-3.09-5.34-4.63-11.45-4.63-18.32s1.54-12.98,4.63-18.32
			s6.95-9.92,12.36-12.98c5.41-3.05,10.81-4.58,17.76-4.58s12.36,1.53,16.99,4.58L820.15,1152.25z M729.8,1205.68
			c5.41,9.92,13.13,18.32,23.17,24.43c10.04,6.11,20.85,9.16,33.21,9.16c10.04,0,19.31-2.29,27.03-6.11
			c3.86-2.29,7.72-4.58,10.81-6.87c0.77,2.29,2.32,5.34,3.86,7.63c3.86,3.05,7.72,4.58,12.36,4.58c4.63,0,9.27-2.29,12.36-5.34
			c3.86-3.82,5.41-6.87,5.41-12.21v-51.15c0-12.98-3.09-24.43-9.27-35.12s-13.9-18.32-24.71-24.43
			c-10.81-6.11-22.39-9.16-34.75-9.16c-13.13,0-24.71,3.05-35.52,9.16c-10.04,6.11-18.53,14.5-24.71,24.43
			c-6.18,10.69-9.27,22.14-9.27,35.12C722.07,1183.54,724.39,1195,729.8,1205.68z"/>
	</g>
</g>
</svg>
