<svg width="36" height="34" viewBox="0 0 36 34" fill="none" xmlns="http://www.w3.org/2000/svg">
<path d="M32.434 0H21.3215H21.2726C19.734 0 18.4639 0.977006 17.9755 2.34481C17.8289 2.73562 17.7557 3.15084 17.7557 3.5905C17.7557 5.56893 19.3432 7.15657 21.3215 7.15657H32.4096C34.3879 7.15657 35.9754 5.56893 35.9754 3.5905C35.9998 1.61206 34.4123 0 32.434 0Z" fill="#01182E"/>
<path d="M35.9999 11.9928C35.9999 11.5532 35.9266 11.1624 35.7801 10.7716C35.7801 10.7471 35.7557 10.7227 35.7557 10.6739C35.7557 10.6494 35.7312 10.625 35.7312 10.6006V10.5762C35.3893 9.79455 34.7787 9.13507 33.9972 8.76869H33.9728C33.9239 8.74427 33.8751 8.71984 33.8507 8.71984C33.411 8.54887 32.947 8.42674 32.4585 8.42674C32.4341 8.42674 32.3853 8.42674 32.3608 8.42674H21.3704C19.3921 8.42674 17.8046 10.0388 17.8046 11.9928C17.8046 13.9712 19.3921 15.5589 21.3704 15.5589H32.483C34.4124 15.5833 35.9999 13.9712 35.9999 11.9928Z" fill="#01182E"/>
<path d="M35.9998 20.4194C35.9998 18.441 34.3879 16.8534 32.434 16.8534C32.3607 16.8534 32.3119 16.8534 32.2386 16.8534H21.4192C21.3947 16.8534 21.3947 16.8534 21.3703 16.8534C21.3459 16.8534 21.3459 16.8534 21.3215 16.8534C19.3432 16.8534 17.7557 18.441 17.7557 20.4194C17.7557 22.3979 19.3432 23.9855 21.3215 23.9855C21.3459 23.9855 21.3459 23.9855 21.3703 23.9855C21.3947 23.9855 21.3947 23.9855 21.4192 23.9855H32.434C34.4123 23.9855 35.9998 22.3979 35.9998 20.4194Z" fill="#01182E"/>
<path d="M21.3214 0H21.297C20.1003 0 18.9768 0.586203 18.3174 1.66091C18.2441 1.78304 18.1709 1.92959 18.0976 2.05171L12.4558 12.7743C12.4558 12.7743 6.7408 1.85631 6.61868 1.63648C6.30118 1.14798 5.86157 0.732754 5.34868 0.439653C4.83579 0.146551 4.22521 0 3.61463 0H3.59021C1.58751 0 0 1.61206 0 3.56607V20.4194C0 22.3979 1.58751 23.9855 3.56579 23.9855C5.54406 23.9855 7.13157 22.3979 7.13157 20.4194V18.0502L9.03658 21.6407C9.10985 21.7872 9.18312 21.9094 9.28081 22.0315C9.81812 23.1306 10.9172 23.8878 12.1872 23.9855H12.2116C12.2604 23.9855 12.2849 23.9855 12.3337 23.9855C12.3581 23.9855 12.3826 23.9855 12.407 23.9855C12.4314 23.9855 12.4558 23.9855 12.4558 23.9855H12.4803C12.5291 23.9855 12.5535 23.9855 12.6024 23.9855C12.6268 23.9855 12.6512 23.9855 12.6512 23.9855C12.7001 23.9855 12.7489 23.9855 12.7978 23.9855H12.8222C12.871 23.9855 12.9199 23.9611 12.9931 23.9611C12.9931 23.9611 12.9931 23.9611 13.0176 23.9611C14.0922 23.7901 15.0935 23.1306 15.6308 22.0803L17.7557 18.0746V20.4438C17.7557 22.4223 19.3432 24.0099 21.3214 24.0099C23.2997 24.0099 24.8872 22.4223 24.8872 20.4438V3.51722C24.8872 1.53878 23.2997 0 21.3214 0Z" fill="#01182E"/>
<path d="M21.3215 24.0099C23.2997 24.0099 24.8872 22.4223 24.8872 20.4439C24.8872 18.4654 23.2997 16.8534 21.3215 16.8534C19.3432 16.8534 17.7557 18.4654 17.7557 20.4194C17.7557 22.3735 19.3432 24.0099 21.3215 24.0099Z" fill="#F3005A"/>
<path d="M4.15194 31.0933C4.0054 30.9468 3.85886 30.8247 3.66348 30.7269C3.76117 30.6537 3.83444 30.556 3.90771 30.4338C4.05425 30.214 4.12752 29.9453 4.12752 29.6767C4.12752 29.3591 4.05425 29.066 3.88329 28.7974C3.71232 28.5287 3.49252 28.3333 3.22386 28.2112C2.95521 28.0646 2.6377 27.9913 2.27136 27.9913H0.561733C0.415194 27.9913 0.268655 28.0402 0.170962 28.1623C0.0488464 28.26 0 28.4066 0 28.5775V33.4137C0 33.5603 0.0488464 33.7068 0.170962 33.8289C0.293078 33.9511 0.415194 33.9999 0.586157 33.9999H2.44232C2.83309 33.9999 3.17501 33.9266 3.49252 33.7557C3.81002 33.5847 4.05425 33.3649 4.22521 33.0718C4.39617 32.7787 4.49387 32.4611 4.49387 32.0948C4.49387 31.6795 4.37175 31.362 4.15194 31.0933ZM2.83309 29.237C2.95521 29.3103 3.02848 29.4568 3.02848 29.6767C3.02848 29.8965 2.95521 30.043 2.83309 30.1407C2.71097 30.2384 2.51559 30.3117 2.29578 30.3117H1.14789V29.0905H2.29578C2.54001 29.066 2.71097 29.1393 2.83309 29.237ZM3.12617 32.7054C2.95521 32.8275 2.7354 32.9252 2.44232 32.9252H1.14789V31.3864H2.44232C2.7354 31.3864 2.95521 31.4597 3.12617 31.5818C3.27271 31.6795 3.3704 31.8505 3.3704 32.1192C3.3704 32.3879 3.27271 32.5833 3.12617 32.7054Z" fill="#01182E"/>
<path d="M32.1408 32.9251C32.3362 33.2426 32.6048 33.5113 32.9468 33.7067C33.2887 33.9021 33.6795 33.9754 34.0947 33.9754C34.3389 33.9754 34.5831 33.9265 34.8518 33.8532C35.1204 33.7555 35.3402 33.6578 35.5112 33.5113C35.6333 33.4136 35.7066 33.2915 35.7066 33.1205C35.7066 32.9739 35.6089 32.8518 35.5112 32.7541C35.4135 32.6564 35.2914 32.632 35.1693 32.632C35.0472 32.632 34.925 32.6808 34.8274 32.7541C34.7541 32.803 34.6564 32.8762 34.5099 32.9251C34.3877 32.9739 34.2412 32.9984 34.1191 32.9984C33.8016 32.9984 33.5329 32.9007 33.3131 32.7297C33.1666 32.6076 33.0689 32.461 32.9956 32.2656H35.4624C35.6089 32.2656 35.731 32.2168 35.8287 32.1191C35.9264 32.0214 35.9752 31.8992 35.9752 31.7527C35.9752 31.3375 35.902 30.9955 35.731 30.678C35.5845 30.3605 35.3402 30.0918 35.0472 29.9208C34.7297 29.7254 34.3877 29.6277 33.9725 29.6277C33.5573 29.6277 33.191 29.7254 32.8735 29.9208C32.556 30.1162 32.2873 30.3605 32.1164 30.7024L32.1408 32.9251ZM32.1164 30.6536C31.9454 30.9955 31.8477 31.3619 31.8477 31.7771C31.8477 32.1923 31.9454 32.5831 32.1408 32.9007L32.1164 30.6536ZM34.632 30.849C34.7541 30.9711 34.8274 31.0932 34.8762 31.2642H32.9956C33.0689 31.0932 33.1421 30.9711 33.2643 30.849C33.4352 30.7024 33.6795 30.6047 33.997 30.6047C34.29 30.6047 34.4854 30.7024 34.632 30.849Z" fill="#01182E"/>
<path d="M24.4963 32.7785C24.3497 32.632 24.1788 32.5587 24.0078 32.5587C23.8124 32.5587 23.6415 32.632 23.5194 32.7785C23.3972 32.9251 23.324 33.0716 23.324 33.267C23.324 33.4624 23.3972 33.609 23.5194 33.7555C23.6659 33.8776 23.8124 33.9509 24.0078 33.9509C24.2032 33.9509 24.3742 33.8776 24.4963 33.7555C24.6184 33.609 24.6917 33.4624 24.6917 33.267C24.6917 33.096 24.6184 32.9251 24.4963 32.7785Z" fill="#01182E"/>
<path d="M28.7707 33.4868L30.1384 30.7023V33.3891C30.1384 33.5356 30.1873 33.7066 30.3094 33.8287C30.4315 33.9509 30.5536 33.9753 30.7246 33.9753C30.8711 33.9753 31.0177 33.9509 31.1153 33.8287C31.2375 33.731 31.2863 33.5601 31.2863 33.3891V28.5529C31.2863 28.4064 31.2375 28.2598 31.1153 28.1377C30.9932 28.04 30.8711 27.9667 30.7246 27.9667C30.5048 27.9667 30.3338 28.0888 30.2117 28.2598L28.7707 33.4868ZM30.1873 28.2842L28.2823 32.1923L26.3284 28.2842C26.2307 28.0888 26.0353 27.9911 25.8155 27.9911C25.669 27.9911 25.5224 28.04 25.4247 28.1621C25.3026 28.2598 25.2538 28.4064 25.2538 28.5773V33.4135C25.2538 33.5601 25.3026 33.7066 25.4247 33.8287C25.5469 33.9509 25.669 33.9997 25.8399 33.9997C25.9865 33.9997 26.133 33.9753 26.2551 33.8532C26.3772 33.731 26.4261 33.5845 26.4261 33.4135V30.7756L27.7694 33.4624C27.8182 33.5601 27.8915 33.6578 27.9892 33.7066C28.0869 33.7799 28.1846 33.8043 28.3067 33.8043C28.5265 33.8043 28.673 33.7066 28.7951 33.5356L30.1873 28.2842Z" fill="#01182E"/>
<path d="M15.3867 33.6823C15.7287 33.8777 16.095 33.9754 16.5102 33.9754C17.0719 33.9754 17.5604 33.8044 17.9512 33.438C18.0489 33.3403 18.1221 33.1938 18.0977 33.0472C18.0733 32.9007 18 32.7785 17.9023 32.6808C17.8046 32.6076 17.6825 32.5587 17.536 32.5831C17.4139 32.5831 17.2917 32.6564 17.1941 32.7297C17.0475 32.8518 16.8277 32.9251 16.5346 32.9251C16.3148 32.9251 16.1194 32.8762 15.9729 32.7785C15.8019 32.6808 15.6798 32.5343 15.5821 32.3633C15.4844 32.1923 15.46 31.9969 15.46 31.7771C15.46 31.4107 15.5577 31.1421 15.7531 30.9467C15.9485 30.7512 16.1927 30.6291 16.5102 30.6291C16.8033 30.6291 17.0475 30.7268 17.2429 30.9467C17.3406 31.0444 17.4383 31.0932 17.5604 31.1176C17.6825 31.1421 17.8291 31.1176 17.9267 31.0444C18.0489 30.9711 18.1221 30.8489 18.171 30.7024C18.2198 30.5558 18.1466 30.4093 18.0489 30.2872C17.6337 29.8231 17.1208 29.5788 16.4858 29.5788C16.0706 29.5788 15.7042 29.6765 15.3867 29.8719C15.0692 30.0673 14.8006 30.3116 14.6296 30.6535C14.4342 30.9955 14.361 31.3619 14.361 31.7771C14.361 32.1923 14.4587 32.5587 14.6296 32.9007C14.8006 33.2426 15.0448 33.4869 15.3867 33.6823Z" fill="#01182E"/>
<path d="M10.7216 33.8044C10.8193 33.6823 10.8682 33.5601 10.8682 33.4136V31.3863C10.8682 31.2398 10.917 31.1421 10.9659 31.0444C11.0391 30.9467 11.1368 30.8489 11.2834 30.7757C11.4055 30.7024 11.5764 30.678 11.7474 30.678C12.0405 30.678 12.2603 30.7512 12.4312 30.9222C12.6022 31.0688 12.6999 31.2886 12.6999 31.655V33.4136C12.6999 33.5601 12.7488 33.7067 12.8464 33.8044C12.9686 33.9021 13.0907 33.9509 13.2372 33.9509C13.3838 33.9509 13.5303 33.9021 13.628 33.78C13.7501 33.6578 13.7989 33.5357 13.7989 33.3647V31.6061C13.7989 31.1909 13.7257 30.8245 13.5547 30.507C13.3838 30.2139 13.1639 29.9696 12.8709 29.8231C12.5778 29.6521 12.2603 29.5788 11.8939 29.5788C11.6253 29.5788 11.3811 29.6277 11.1368 29.7254C11.0147 29.7742 10.917 29.8231 10.7949 29.8964C10.7705 29.8475 10.746 29.7987 10.6972 29.7742C10.5751 29.6521 10.453 29.6033 10.282 29.6033C10.1355 29.6033 9.98893 29.6521 9.89124 29.7498C9.76912 29.8719 9.72028 29.9941 9.72028 30.165V33.3647C9.72028 33.5113 9.76912 33.6578 9.86682 33.7555C9.98893 33.8532 10.111 33.9021 10.2576 33.9021C10.453 33.9754 10.5995 33.9265 10.7216 33.8044Z" fill="#01182E"/>
<path d="M8.18199 33.8044C8.30411 33.9266 8.45065 33.9754 8.59719 33.9754C8.74373 33.9754 8.89027 33.9266 8.98796 33.8044C9.11007 33.6823 9.15892 33.5602 9.15892 33.3892V31.7527C9.15892 31.3375 9.06123 30.9711 8.86584 30.6292C8.67046 30.2872 8.42623 30.043 8.0843 29.8476C7.74238 29.6522 7.37603 29.5545 6.98526 29.5545C6.57006 29.5545 6.20372 29.6522 5.86179 29.8476C5.54429 30.043 5.27563 30.3117 5.08025 30.6292C4.88486 30.9711 4.78717 31.3375 4.78717 31.7527C4.78717 32.168 4.86044 32.5343 5.05583 32.8763C5.22679 33.1938 5.47102 33.4625 5.78852 33.6579C6.10602 33.8533 6.44795 33.951 6.83872 33.951C7.15622 33.951 7.4493 33.8777 7.69353 33.7556C7.81565 33.6823 7.93776 33.609 8.03546 33.5358C8.0843 33.6335 8.13315 33.7556 8.18199 33.8044ZM7.93776 31.191C8.03545 31.3619 8.0843 31.5573 8.0843 31.7772C8.0843 31.997 8.03545 32.1924 7.93776 32.3634C7.84007 32.5343 7.71795 32.6565 7.54699 32.7786C7.40045 32.8763 7.20507 32.9251 6.98526 32.9251C6.78987 32.9251 6.59449 32.8763 6.42352 32.7786C6.25256 32.6809 6.13045 32.5343 6.03275 32.3634C5.93506 32.1924 5.88621 31.997 5.88621 31.7772C5.88621 31.5573 5.93506 31.3619 6.03275 31.191C6.13045 31.02 6.25256 30.8734 6.42352 30.7757C6.59449 30.678 6.76545 30.6292 6.98526 30.6292C7.20507 30.6292 7.37603 30.678 7.52257 30.7757C7.69353 30.8734 7.84007 31.02 7.93776 31.191Z" fill="#01182E"/>
<path d="M18.6589 32.9007C18.8299 33.2182 19.0741 33.4869 19.3916 33.6823C19.7091 33.8777 20.0511 33.9754 20.4418 33.9754C20.7593 33.9754 21.0524 33.9022 21.2966 33.78C21.4188 33.7067 21.5409 33.6335 21.6386 33.5602C21.663 33.6335 21.7118 33.7312 21.7607 33.8044C21.8828 33.9021 22.0049 33.951 22.1514 33.951C22.298 33.951 22.4445 33.8777 22.5422 33.78C22.6643 33.6579 22.7132 33.5602 22.7132 33.3892V31.7527C22.7132 31.3375 22.6155 30.9711 22.4201 30.6292C22.2247 30.2872 21.9805 30.043 21.6386 29.8476C21.2966 29.6522 20.9303 29.5545 20.5395 29.5545C20.1243 29.5545 19.758 29.6522 19.4161 29.8476C19.0986 30.043 18.8299 30.3117 18.6345 30.6292C18.4391 30.9711 18.3414 31.3375 18.3414 31.7527C18.4147 32.1924 18.488 32.5588 18.6589 32.9007ZM21.5164 31.191C21.6141 31.3619 21.663 31.5573 21.663 31.7772C21.663 31.997 21.6141 32.1924 21.5164 32.3634C21.4188 32.5343 21.2966 32.6565 21.1257 32.7786C20.9791 32.8763 20.7838 32.9251 20.5639 32.9251C20.3686 32.9251 20.1732 32.8763 20.0022 32.7786C19.8312 32.6809 19.7091 32.5343 19.6114 32.3634C19.5137 32.1924 19.4649 31.997 19.4649 31.7772C19.4649 31.5573 19.5137 31.3619 19.6114 31.191C19.7091 31.02 19.8312 30.8734 20.0022 30.7757C20.1732 30.678 20.3441 30.6292 20.5639 30.6292C20.7838 30.6292 20.9547 30.678 21.1013 30.7757L21.5164 31.191ZM21.1501 30.7757C21.3211 30.8734 21.4432 30.9956 21.5409 31.191L21.1501 30.7757Z" fill="#01182E"/>
</svg>
